<svg id="visual" viewBox="0 0 900 600" width="900" height="600" xmlns="http://www.w3.org/2000/svg" xmlns:xlink="http://www.w3.org/1999/xlink" version="1.1"><rect x="0" y="0" width="900" height="600" fill="#001220"></rect><path d="M0 384L21.5 393.8C43 403.7 86 423.3 128.8 423.5C171.7 423.7 214.3 404.3 257.2 403.7C300 403 343 421 385.8 428.8C428.7 436.7 471.3 434.3 514.2 421.3C557 408.3 600 384.7 642.8 373C685.7 361.3 728.3 361.7 771.2 364.8C814 368 857 374 878.5 377L900 380L900 601L878.5 601C857 601 814 601 771.2 601C728.3 601 685.7 601 642.8 601C600 601 557 601 514.2 601C471.3 601 428.7 601 385.8 601C343 601 300 601 257.2 601C214.3 601 171.7 601 128.8 601C86 601 43 601 21.5 601L0 601Z" fill="#fa7268"></path><path d="M0 441L21.5 440C43 439 86 437 128.8 442.2C171.7 447.3 214.3 459.7 257.2 460.8C300 462 343 452 385.8 450.7C428.7 449.3 471.3 456.7 514.2 450.3C557 444 600 424 642.8 423.5C685.7 423 728.3 442 771.2 440.3C814 438.7 857 416.3 878.5 405.2L900 394L900 601L878.5 601C857 601 814 601 771.2 601C728.3 601 685.7 601 642.8 601C600 601 557 601 514.2 601C471.3 601 428.7 601 385.8 601C343 601 300 601 257.2 601C214.3 601 171.7 601 128.8 601C86 601 43 601 21.5 601L0 601Z" fill="#ef5f67"></path><path d="M0 443L21.5 445.3C43 447.7 86 452.3 128.8 462.7C171.7 473 214.3 489 257.2 492C300 495 343 485 385.8 481.8C428.7 478.7 471.3 482.3 514.2 476.8C557 471.3 600 456.7 642.8 455.2C685.7 453.7 728.3 465.3 771.2 469.3C814 473.3 857 469.7 878.5 467.8L900 466L900 601L878.5 601C857 601 814 601 771.2 601C728.3 601 685.7 601 642.8 601C600 601 557 601 514.2 601C471.3 601 428.7 601 385.8 601C343 601 300 601 257.2 601C214.3 601 171.7 601 128.8 601C86 601 43 601 21.5 601L0 601Z" fill="#e34c67"></path><path d="M0 540L21.5 531C43 522 86 504 128.8 496.7C171.7 489.3 214.3 492.7 257.2 498C300 503.3 343 510.7 385.8 515C428.7 519.3 471.3 520.7 514.2 522C557 523.3 600 524.7 642.8 524.5C685.7 524.3 728.3 522.7 771.2 516.3C814 510 857 499 878.5 493.5L900 488L900 601L878.5 601C857 601 814 601 771.2 601C728.3 601 685.7 601 642.8 601C600 601 557 601 514.2 601C471.3 601 428.7 601 385.8 601C343 601 300 601 257.2 601C214.3 601 171.7 601 128.8 601C86 601 43 601 21.5 601L0 601Z" fill="#d53867"></path><path d="M0 568L21.5 564.5C43 561 86 554 128.8 548.5C171.7 543 214.3 539 257.2 539.7C300 540.3 343 545.7 385.8 544.5C428.7 543.3 471.3 535.7 514.2 531.8C557 528 600 528 642.8 535C685.7 542 728.3 556 771.2 558.7C814 561.3 857 552.7 878.5 548.3L900 544L900 601L878.5 601C857 601 814 601 771.2 601C728.3 601 685.7 601 642.8 601C600 601 557 601 514.2 601C471.3 601 428.7 601 385.8 601C343 601 300 601 257.2 601C214.3 601 171.7 601 128.8 601C86 601 43 601 21.5 601L0 601Z" fill="#c62368"></path></svg>